<svg xmlns="http://www.w3.org/2000/svg" xmlns:xlink="http://www.w3.org/1999/xlink" width="212.5" height="59.656" viewBox="0 0 212.5 59.656"><defs><clipPath id="a"><rect width="212.5" height="59.656" fill="#fff"/></clipPath></defs><g clip-path="url(#a)"><path d="M64.975,27.99H212.309v1.417H64.975Zm0,9.026a5.274,5.274,0,0,1,.379-2.128,3.917,3.917,0,0,1,.773-1.138A3.255,3.255,0,0,1,67.2,33a4.719,4.719,0,0,1,1.787-.328,3.891,3.891,0,0,1,2.924,1.144,4.339,4.339,0,0,1,1.111,3.158,4.354,4.354,0,0,1-1.09,3.144,4.344,4.344,0,0,1-5.861-.006,4.289,4.289,0,0,1-1.1-3.1m1.728-.056a3.11,3.11,0,0,0,.645,2.131,2.241,2.241,0,0,0,3.295.01,2.31,2.31,0,0,0,.481-.9,4.281,4.281,0,0,0,.17-1.266,3.117,3.117,0,0,0-.626-2.112,2.105,2.105,0,0,0-1.662-.711,2.127,2.127,0,0,0-1.66.717,3.1,3.1,0,0,0-.644,2.13M77.084,35.1v1.264H76v2.429a5.806,5.806,0,0,0,.031.881.44.44,0,0,0,.139.182.465.465,0,0,0,.27.079,2.418,2.418,0,0,0,.642-.151l.135,1.235a3.172,3.172,0,0,1-1.258.238,2.007,2.007,0,0,1-.76-.137,1.26,1.26,0,0,1-.527-.379l-.126-.246-.091-.317-.039-.483-.017-.7V36.364h-.729V35.1H74.4V33.911l1.6-.926V35.1Zm.736,2.93a3.433,3.433,0,0,1,.085-.769,2.845,2.845,0,0,1,.116-.365,3.4,3.4,0,0,1,.184-.389,2.706,2.706,0,0,1,1.115-1.138,3.263,3.263,0,0,1,1.6-.4A3.024,3.024,0,0,1,84.024,38.1a3.121,3.121,0,0,1-.879,2.246,2.951,2.951,0,0,1-2.217.914,3.459,3.459,0,0,1-1.548-.373,2.624,2.624,0,0,1-1.157-1.1,3.559,3.559,0,0,1-.4-1.755m1.635.085a2.006,2.006,0,0,0,.423,1.355,1.334,1.334,0,0,0,1.047.489,1.349,1.349,0,0,0,1.024-.477,2.389,2.389,0,0,0,.017-2.734,1.335,1.335,0,0,0-1.042-.476,1.4,1.4,0,0,0-1.041.476,1.78,1.78,0,0,0-.321.576c-.016.054-.029.1-.037.141s-.025.116-.042.222-.025.212-.027.276,0,.114,0,.153m5.691-3.009h1.461v.819a2.357,2.357,0,0,1,1.873-.953,2.01,2.01,0,0,1,1,.238,1.8,1.8,0,0,1,.7.715,2.764,2.764,0,0,1,.862-.713,2.109,2.109,0,0,1,.974-.24,2.244,2.244,0,0,1,1.129.257,1.591,1.591,0,0,1,.676.8,3.456,3.456,0,0,1,.164,1.244v3.842H92.394V37.684a2.5,2.5,0,0,0-.164-1.154.756.756,0,0,0-.68-.34,1.068,1.068,0,0,0-.6.2A1.23,1.23,0,0,0,90.5,37l-.052.2-.05.367a6.135,6.135,0,0,0-.029.663v2.885H88.776V37.825a4.522,4.522,0,0,0-.085-1.109.753.753,0,0,0-.263-.4.8.8,0,0,0-.483-.13,1.123,1.123,0,0,0-.65.19,1.2,1.2,0,0,0-.431.586c-.013.048-.031.118-.048.2s-.035.209-.052.365a5.834,5.834,0,0,0-.029.665v2.92H85.147Zm11.62,1.834-1.447-.261a2.272,2.272,0,0,1,.835-1.274,3.007,3.007,0,0,1,1.77-.433,3.81,3.81,0,0,1,1.579.251,1.581,1.581,0,0,1,.738.64,3.275,3.275,0,0,1,.213,1.423l-.012,1.857a7.218,7.218,0,0,0,.068,1.165,3,3,0,0,0,.29.81H99.233l-.153-.473-.056-.187a2.962,2.962,0,0,1-.873.6,2.456,2.456,0,0,1-.993.2,2.054,2.054,0,0,1-1.467-.5,1.67,1.67,0,0,1-.536-1.274,1.759,1.759,0,0,1,.238-.9,1.542,1.542,0,0,1,.688-.618,5.372,5.372,0,0,1,1.27-.371A8.071,8.071,0,0,0,98.9,37.2v-.158a.823.823,0,0,0-.226-.653,1.378,1.378,0,0,0-.858-.2,1.163,1.163,0,0,0-.653.155,1.259,1.259,0,0,0-.4.6M98.9,38.23c-.083.021-.255.064-.512.124-.157.038-.309.073-.462.108a2.355,2.355,0,0,0-.87.288.673.673,0,0,0-.313.561.773.773,0,0,0,.259.572.867.867,0,0,0,.626.249,1.39,1.39,0,0,0,.823-.282,1.1,1.1,0,0,0,.379-.528l.046-.294.023-.481Zm2.564,1.171,1.59-.243a1.235,1.235,0,0,0,.411.7,1.345,1.345,0,0,0,.874.253,1.6,1.6,0,0,0,.927-.226.507.507,0,0,0,.209-.425.415.415,0,0,0-.112-.3,1.809,1.809,0,0,0-.531-.211,8.56,8.56,0,0,1-2.437-.775,1.554,1.554,0,0,1-.711-1.355A1.671,1.671,0,0,1,102.3,35.5a2.892,2.892,0,0,1,1.915-.531,3.367,3.367,0,0,1,1.832.394,2.1,2.1,0,0,1,.829,1.2l-1.5.278a.88.88,0,0,0-.363-.531,1.322,1.322,0,0,0-.771-.193,1.7,1.7,0,0,0-.9.176.365.365,0,0,0-.182.323.35.35,0,0,0,.159.288,7.241,7.241,0,0,0,1.471.427,4.409,4.409,0,0,1,1.784.727,1.465,1.465,0,0,1,.506,1.183,1.817,1.817,0,0,1-.7,1.411,3.028,3.028,0,0,1-2.037.6,3.358,3.358,0,0,1-1.923-.491,2.333,2.333,0,0,1-.957-1.364m6.261-4.3h1.693l1.438,4.278,1.405-4.278h1.647l-2.122,5.786-.381,1.047a3.656,3.656,0,0,1-.2.476l-.1.182-.1.147a1.7,1.7,0,0,1-.435.445,2.016,2.016,0,0,1-.6.268,2.986,2.986,0,0,1-.814.1h-.22l-.232-.017h-.124l-.085-.023-.238-.05-.143-1.243.346.048.328.021a1,1,0,0,0,.816-.327,2.192,2.192,0,0,0,.413-.829Zm6.834,2.93a3.433,3.433,0,0,1,.085-.769,2.847,2.847,0,0,1,.116-.365,3.445,3.445,0,0,1,.184-.389,2.708,2.708,0,0,1,1.115-1.138,3.263,3.263,0,0,1,1.6-.4,3.024,3.024,0,0,1,3.107,3.125,3.121,3.121,0,0,1-.879,2.246,2.951,2.951,0,0,1-2.217.914,3.457,3.457,0,0,1-1.548-.373,2.624,2.624,0,0,1-1.158-1.1,3.562,3.562,0,0,1-.4-1.755m1.635.085a2.006,2.006,0,0,0,.423,1.355,1.334,1.334,0,0,0,1.048.489,1.349,1.349,0,0,0,1.024-.477,2.389,2.389,0,0,0,.017-2.734,1.334,1.334,0,0,0-1.041-.476,1.4,1.4,0,0,0-1.042.476,1.78,1.78,0,0,0-.321.576c-.016.054-.029.1-.037.141s-.025.116-.043.222-.025.212-.027.276,0,.114,0,.153m11.292,3H125.9V38.051a4.758,4.758,0,0,0-.1-1.256.889.889,0,0,0-.333-.446.946.946,0,0,0-.555-.159,1.31,1.31,0,0,0-.724.213,1.149,1.149,0,0,0-.462.613,2.547,2.547,0,0,0-.1.539c-.023.23-.035.51-.035.843v2.721H122V35.106h1.473v.883a2.406,2.406,0,0,1,1.987-1.017,2.34,2.34,0,0,1,.947.187,1.6,1.6,0,0,1,.653.475,1.73,1.73,0,0,1,.193.3,2.548,2.548,0,0,1,.141.377,3.334,3.334,0,0,1,.068.452l.023.617Zm4.785-8.3h1.681v8.3h-1.681Zm.07-1.983h1.565V32.34h-1.565Zm8.671,10.285h-1.589V38.051a4.759,4.759,0,0,0-.1-1.256.889.889,0,0,0-.333-.446.946.946,0,0,0-.554-.159,1.31,1.31,0,0,0-.725.213,1.149,1.149,0,0,0-.462.613,2.545,2.545,0,0,0-.1.539c-.023.23-.035.51-.035.843v2.721h-1.588V35.106H137v.883a2.4,2.4,0,0,1,1.987-1.017,2.341,2.341,0,0,1,.947.187,1.6,1.6,0,0,1,.653.475,1.733,1.733,0,0,1,.193.3,2.549,2.549,0,0,1,.141.377,3.292,3.292,0,0,1,.067.452l.023.617Zm5.272.354a.945.945,0,0,1,.373.765,1.044,1.044,0,0,1-.408.81,2.517,2.517,0,0,1-1.577.425,4.779,4.779,0,0,1-1.105-.091v-.663l.539.035.535.023a1.221,1.221,0,0,0,.75-.182.413.413,0,0,0,.187-.352.5.5,0,0,0-.176-.334.862.862,0,0,0-.545-.141h-.232l-.2.023a.565.565,0,0,0-.126.021c-.052.016-.114.035-.187.06l.149-.553a.809.809,0,0,1,.18-.037,2.026,2.026,0,0,0,.216-.037,3.067,3.067,0,0,1-.9-.124,2.814,2.814,0,0,1-.754-.358,2.353,2.353,0,0,1-.951-1.362l1.59-.243a1.209,1.209,0,0,0,.411.688,1.345,1.345,0,0,0,.874.251,1.6,1.6,0,0,0,.927-.226.507.507,0,0,0,.209-.423.415.415,0,0,0-.112-.3,1.785,1.785,0,0,0-.531-.209,8.62,8.62,0,0,1-2.437-.775,1.55,1.55,0,0,1-.711-1.351,1.661,1.661,0,0,1,.617-1.31,2.892,2.892,0,0,1,1.915-.531,3.367,3.367,0,0,1,1.832.394,2.1,2.1,0,0,1,.829,1.2l-1.5.278a.89.89,0,0,0-.365-.531,1.331,1.331,0,0,0-.771-.193,1.713,1.713,0,0,0-.9.176.364.364,0,0,0-.182.321.347.347,0,0,0,.159.288,7.1,7.1,0,0,0,1.471.427,4.412,4.412,0,0,1,1.784.727,1.463,1.463,0,0,1,.506,1.181,1.824,1.824,0,0,1-.694,1.411,2.563,2.563,0,0,1-1.312.543,1.88,1.88,0,0,1,.338.1,1.336,1.336,0,0,1,.286.174m3.97-4.532-1.447-.261a2.269,2.269,0,0,1,.835-1.274,3.006,3.006,0,0,1,1.77-.433,3.811,3.811,0,0,1,1.579.251,1.582,1.582,0,0,1,.738.64,3.28,3.28,0,0,1,.213,1.423l-.012,1.857A7.22,7.22,0,0,0,154,40.308a3.008,3.008,0,0,0,.29.81H152.72l-.153-.473-.056-.187a2.96,2.96,0,0,1-.874.6,2.455,2.455,0,0,1-.993.2,2.054,2.054,0,0,1-1.467-.5,1.671,1.671,0,0,1-.535-1.274,1.756,1.756,0,0,1,.238-.9,1.541,1.541,0,0,1,.688-.618,5.373,5.373,0,0,1,1.27-.371,8.058,8.058,0,0,0,1.55-.392v-.158a.822.822,0,0,0-.226-.653,1.377,1.377,0,0,0-.858-.2,1.164,1.164,0,0,0-.653.155,1.258,1.258,0,0,0-.4.6m2.134,1.291c-.083.021-.255.064-.512.124-.157.038-.309.073-.462.108a2.354,2.354,0,0,0-.87.288.673.673,0,0,0-.313.561.774.774,0,0,0,.259.572.867.867,0,0,0,.626.249,1.39,1.39,0,0,0,.823-.282,1.1,1.1,0,0,0,.379-.528l.046-.294.023-.481ZM156.7,36.94l-1.447-.261a2.272,2.272,0,0,1,.835-1.274,3.007,3.007,0,0,1,1.77-.433,3.81,3.81,0,0,1,1.579.251,1.579,1.579,0,0,1,.738.64,3.274,3.274,0,0,1,.213,1.423l-.012,1.857a7.221,7.221,0,0,0,.068,1.165,3,3,0,0,0,.29.81h-1.567l-.153-.473-.056-.187a2.963,2.963,0,0,1-.873.6,2.456,2.456,0,0,1-.993.2,2.054,2.054,0,0,1-1.467-.5,1.67,1.67,0,0,1-.536-1.274,1.759,1.759,0,0,1,.238-.9,1.541,1.541,0,0,1,.688-.618,5.381,5.381,0,0,1,1.27-.371,8.059,8.059,0,0,0,1.55-.392v-.158a.822.822,0,0,0-.226-.653,1.377,1.377,0,0,0-.858-.2,1.163,1.163,0,0,0-.653.155,1.258,1.258,0,0,0-.4.6m2.133,1.291c-.083.021-.255.064-.512.124-.157.038-.309.073-.462.108a2.356,2.356,0,0,0-.87.288.673.673,0,0,0-.313.561.773.773,0,0,0,.259.572.866.866,0,0,0,.626.249,1.39,1.39,0,0,0,.823-.282,1.1,1.1,0,0,0,.379-.528l.046-.294.023-.481Zm5.887-3.131v1.264h-1.084v2.429a5.808,5.808,0,0,0,.031.881.44.44,0,0,0,.139.182.465.465,0,0,0,.27.079,2.418,2.418,0,0,0,.642-.151l.135,1.235a3.17,3.17,0,0,1-1.258.238,2.006,2.006,0,0,1-.759-.137,1.262,1.262,0,0,1-.528-.379l-.126-.246-.091-.317-.038-.483-.018-.7V36.364h-.728V35.1h.728V33.911l1.6-.926V35.1Zm6.2,6.018v-6.9h-2.458v-1.4h6.6v1.4H172.6v6.9Zm5.539-4.178-1.447-.261a2.272,2.272,0,0,1,.835-1.274,3.007,3.007,0,0,1,1.77-.433,3.81,3.81,0,0,1,1.579.251,1.579,1.579,0,0,1,.738.64,3.279,3.279,0,0,1,.213,1.423l-.012,1.857a7.222,7.222,0,0,0,.068,1.165,3.008,3.008,0,0,0,.29.81h-1.567l-.153-.473-.056-.187a2.962,2.962,0,0,1-.873.6,2.457,2.457,0,0,1-.993.2,2.055,2.055,0,0,1-1.467-.5,1.671,1.671,0,0,1-.535-1.274,1.756,1.756,0,0,1,.238-.9,1.541,1.541,0,0,1,.688-.618,5.381,5.381,0,0,1,1.27-.371,8.059,8.059,0,0,0,1.55-.392v-.158a.822.822,0,0,0-.226-.653,1.377,1.377,0,0,0-.858-.2,1.164,1.164,0,0,0-.653.155,1.258,1.258,0,0,0-.4.6m2.134,1.291c-.083.021-.255.064-.512.124-.157.038-.309.073-.462.108a2.355,2.355,0,0,0-.87.288.673.673,0,0,0-.313.561.774.774,0,0,0,.259.572.868.868,0,0,0,.626.249,1.39,1.39,0,0,0,.823-.282,1.1,1.1,0,0,0,.379-.528l.046-.294.023-.481Zm4.316-1.291-1.448-.261a2.272,2.272,0,0,1,.835-1.274,3.007,3.007,0,0,1,1.77-.433,3.81,3.81,0,0,1,1.579.251,1.579,1.579,0,0,1,.738.64,3.275,3.275,0,0,1,.213,1.423l-.012,1.857a7.218,7.218,0,0,0,.068,1.165,3,3,0,0,0,.29.81h-1.567l-.153-.473-.056-.187a2.958,2.958,0,0,1-.873.6,2.456,2.456,0,0,1-.993.2,2.054,2.054,0,0,1-1.467-.5,1.67,1.67,0,0,1-.536-1.274,1.759,1.759,0,0,1,.238-.9,1.543,1.543,0,0,1,.688-.618,5.381,5.381,0,0,1,1.27-.371,8.06,8.06,0,0,0,1.55-.392v-.158a.822.822,0,0,0-.226-.653,1.376,1.376,0,0,0-.858-.2,1.164,1.164,0,0,0-.653.155,1.256,1.256,0,0,0-.4.6m2.133,1.291c-.083.021-.255.064-.512.124-.157.038-.309.073-.462.108a2.356,2.356,0,0,0-.87.288.673.673,0,0,0-.313.561.773.773,0,0,0,.259.572.866.866,0,0,0,.626.249,1.39,1.39,0,0,0,.823-.282,1.1,1.1,0,0,0,.379-.528l.046-.294.023-.481Zm4.71-5.415v3.053a2.342,2.342,0,0,1,1.84-.9,2.391,2.391,0,0,1,.98.2,1.562,1.562,0,0,1,.677.522,1.965,1.965,0,0,1,.3.7,6.117,6.117,0,0,1,.085,1.194v3.525h-1.588V37.944a4.867,4.867,0,0,0-.087-1.2.786.786,0,0,0-.327-.4.982.982,0,0,0-.572-.153,1.324,1.324,0,0,0-.7.19,1.125,1.125,0,0,0-.458.586,3.362,3.362,0,0,0-.151,1.142v3.011h-1.588v-8.3Zm7.083,0v3.053a2.341,2.341,0,0,1,1.84-.9,2.393,2.393,0,0,1,.98.2,1.563,1.563,0,0,1,.676.522,1.963,1.963,0,0,1,.3.7,6.113,6.113,0,0,1,.085,1.194v3.525h-1.589V37.944a4.865,4.865,0,0,0-.087-1.2.786.786,0,0,0-.327-.4.982.982,0,0,0-.572-.153,1.325,1.325,0,0,0-.7.19,1.127,1.127,0,0,0-.458.586,3.363,3.363,0,0,0-.151,1.142v3.011h-1.589v-8.3Zm9.471,8.3v-.9a2.294,2.294,0,0,1-.86.756,2.422,2.422,0,0,1-1.136.288,2.167,2.167,0,0,1-1.09-.261,1.636,1.636,0,0,1-.688-.748,3.238,3.238,0,0,1-.226-1.339V35.1h1.589v2.764a7.882,7.882,0,0,0,.085,1.544.869.869,0,0,0,.321.46.991.991,0,0,0,.6.172,1.273,1.273,0,0,0,.733-.22,1.124,1.124,0,0,0,.443-.557,6.46,6.46,0,0,0,.12-1.625V35.1h1.589v6.018Zm-3.177-8.441H204.5v1.368h-1.368Zm2.435,0h1.368v1.368h-1.368Zm6.613,2.423v1.264h-1.084v2.429a5.8,5.8,0,0,0,.031.881.441.441,0,0,0,.139.182.465.465,0,0,0,.27.079,2.414,2.414,0,0,0,.641-.151l.135,1.235a3.169,3.169,0,0,1-1.258.238,2.007,2.007,0,0,1-.76-.137,1.261,1.261,0,0,1-.527-.379l-.126-.246-.091-.317-.039-.483-.017-.7V36.364h-.729V35.1h.729V33.911l1.6-.926V35.1ZM120.618,56.478v-6.9H118.16v-1.4h6.6v1.4H122.3v6.9Zm78.759-1.589h1.589v1.589h-1.589Zm-3.222-4.424h1.589v6.012h-1.589Zm0-2.29h1.589v1.473h-1.589Zm-1.107,2.284v1.264h-1.084v2.429a5.8,5.8,0,0,0,.031.881.441.441,0,0,0,.139.182.465.465,0,0,0,.27.079,2.422,2.422,0,0,0,.642-.151l.135,1.235a3.164,3.164,0,0,1-1.258.238,2.006,2.006,0,0,1-.76-.137,1.263,1.263,0,0,1-.528-.379l-.126-.246-.091-.317-.038-.483-.017-.7V51.724h-.729V50.46h.729V49.271l1.6-.926V50.46Zm-9.895,5.448a3.35,3.35,0,0,1-1.011-2.126l1.631-.158a1.983,1.983,0,0,0,.6,1.2,1.791,1.791,0,0,0,1.214.389,1.887,1.887,0,0,0,1.2-.34,1.006,1.006,0,0,0,.423-.8.723.723,0,0,0-.166-.481,1.6,1.6,0,0,0-.609-.381l-1.339-.361a4.608,4.608,0,0,1-1.888-.821,2.157,2.157,0,0,1-.763-1.672,2.117,2.117,0,0,1,.352-1.179,2.336,2.336,0,0,1,1.036-.845,3.6,3.6,0,0,1,.777-.22,5.254,5.254,0,0,1,.864-.073,3.5,3.5,0,0,1,2.35.684,2.5,2.5,0,0,1,.611.8,2.35,2.35,0,0,1,.22,1.028l-1.672.073a1.38,1.38,0,0,0-.464-.918,1.726,1.726,0,0,0-1.061-.278,1.911,1.911,0,0,0-1.146.3.6.6,0,0,0-.267.516.659.659,0,0,0,.267.512,4.909,4.909,0,0,0,1.517.539,9.62,9.62,0,0,1,1.082.29,4.148,4.148,0,0,1,.734.317,2.462,2.462,0,0,1,.858,3.469,2.542,2.542,0,0,1-1.133.955,3.827,3.827,0,0,1-.827.222l-.3.033a1.061,1.061,0,0,1,.28.132,1.69,1.69,0,0,1,.236.17.952.952,0,0,1,.377.767,1.048,1.048,0,0,1-.408.814,2.516,2.516,0,0,1-1.577.427,4.793,4.793,0,0,1-1.106-.091v-.674l.541.046.533.023a1.22,1.22,0,0,0,.75-.184.42.42,0,0,0,.187-.355.5.5,0,0,0-.176-.338.865.865,0,0,0-.547-.143H187.1l-.2.035a.551.551,0,0,0-.124.021c-.054.015-.116.035-.187.06l.143-.555c.091-.031.139-.046.145-.05.083-.027.166-.048.251-.067a3.118,3.118,0,0,1-1.11-.186,2.777,2.777,0,0,1-.871-.524m-7.037-1.019h1.589v1.589h-1.589ZM172.3,53.347a2.682,2.682,0,0,0,.265,1.393,1.2,1.2,0,0,0,1.074.624,1.175,1.175,0,0,0,.92-.466,1.577,1.577,0,0,0,.294-.58,2.955,2.955,0,0,0,.1-.82,2.37,2.37,0,0,0-.375-1.482,1.174,1.174,0,0,0-.953-.467,1.2,1.2,0,0,0-.947.45,2.052,2.052,0,0,0-.381,1.347m4.244,3.131h-1.473V55.6a2.325,2.325,0,0,1-.864.765,2.242,2.242,0,0,1-1.017.255,2.308,2.308,0,0,1-1.76-.833,4.042,4.042,0,0,1-.039-4.646,2.344,2.344,0,0,1,3.564.029V48.175h1.589Zm-6.615-6.018v1.264h-1.084v2.429a5.8,5.8,0,0,0,.031.881.44.44,0,0,0,.139.182.465.465,0,0,0,.27.079,2.423,2.423,0,0,0,.642-.151l.135,1.235a3.164,3.164,0,0,1-1.258.238,2.007,2.007,0,0,1-.76-.137,1.263,1.263,0,0,1-.528-.379l-.126-.246-.091-.317-.038-.483-.017-.7V51.724h-.729V50.46h.729V49.271l1.6-.926V50.46Zm-9.79,6.018V48.245h1.681v6.83h4.157v1.4Zm-4.375-6.018v1.264h-1.084v2.429a5.808,5.808,0,0,0,.031.881.438.438,0,0,0,.139.182.465.465,0,0,0,.27.079,2.422,2.422,0,0,0,.642-.151l.135,1.235a3.167,3.167,0,0,1-1.258.238,2.007,2.007,0,0,1-.76-.137,1.26,1.26,0,0,1-.527-.379l-.126-.246-.091-.317-.039-.483-.017-.7V51.724h-.729V50.46h.729V49.271l1.6-.926V50.46Zm-5.641,2.493a1.443,1.443,0,0,0-.352-1.034,1.112,1.112,0,0,0-.833-.369,1.128,1.128,0,0,0-.848.377,1.26,1.26,0,0,0-.255.443,1.794,1.794,0,0,0-.091.584Zm-.089,1.623,1.583.265a2.672,2.672,0,0,1-.97,1.3,3.126,3.126,0,0,1-3.965-.553,3.432,3.432,0,0,1-.6-2.074,3.338,3.338,0,0,1,.781-2.327,2.556,2.556,0,0,1,1.977-.86,2.715,2.715,0,0,1,2.116.891,2.768,2.768,0,0,1,.551,1.107,6.13,6.13,0,0,1,.191,1.608h-3.981a1.511,1.511,0,0,0,.377,1.084,1.216,1.216,0,0,0,.924.4.975.975,0,0,0,.624-.2,1.259,1.259,0,0,0,.388-.649m-6.466,1.9h-1.589V50.465h1.473v.854a2.5,2.5,0,0,1,.7-.8,1.29,1.29,0,0,1,.674-.191,2.012,2.012,0,0,1,1.048.3l-.493,1.393a1.5,1.5,0,0,0-.748-.267.859.859,0,0,0-.543.17,1.414,1.414,0,0,0-.39.678l-.067.328a2.951,2.951,0,0,0-.029.408v.414l-.035.866Zm-4.652-2.887c-.083.021-.255.064-.512.124-.157.038-.309.073-.462.108a2.347,2.347,0,0,0-.87.288.672.672,0,0,0-.313.56.774.774,0,0,0,.259.572.869.869,0,0,0,.626.249,1.39,1.39,0,0,0,.823-.282,1.1,1.1,0,0,0,.379-.528l.046-.294.023-.481ZM136.779,52.3l-1.447-.261a2.272,2.272,0,0,1,.835-1.274,3.01,3.01,0,0,1,1.77-.433,3.81,3.81,0,0,1,1.579.251,1.579,1.579,0,0,1,.738.64,3.279,3.279,0,0,1,.213,1.423l-.012,1.857a7.22,7.22,0,0,0,.068,1.165,3.008,3.008,0,0,0,.29.81h-1.567L139.092,56l-.056-.188a2.958,2.958,0,0,1-.874.6,2.456,2.456,0,0,1-.993.2,2.056,2.056,0,0,1-1.467-.5,1.671,1.671,0,0,1-.535-1.274,1.757,1.757,0,0,1,.238-.9,1.541,1.541,0,0,1,.688-.618,5.381,5.381,0,0,1,1.27-.371,8.059,8.059,0,0,0,1.55-.392V52.4a.822.822,0,0,0-.226-.653,1.377,1.377,0,0,0-.858-.195,1.163,1.163,0,0,0-.653.154,1.256,1.256,0,0,0-.4.6m-2.4-.058-1.567.282a1.094,1.094,0,0,0-.35-.694,1.083,1.083,0,0,0-.736-.245,1.179,1.179,0,0,0-.947.414,2.1,2.1,0,0,0-.354,1.368,2.45,2.45,0,0,0,.356,1.511,1.179,1.179,0,0,0,.968.441,1.272,1.272,0,0,0,.39-.056.994.994,0,0,0,.327-.193,1.668,1.668,0,0,0,.431-.9l1.561.267a2.778,2.778,0,0,1-.937,1.617,2.853,2.853,0,0,1-1.846.563,2.759,2.759,0,0,1-2.085-.835,3.19,3.19,0,0,1-.8-2.3,3.254,3.254,0,0,1,.783-2.307,2.773,2.773,0,0,1,2.13-.841,2.889,2.889,0,0,1,1.728.464,2.692,2.692,0,0,1,.949,1.446M76.319,53.77l1.631-.159a1.986,1.986,0,0,0,.6,1.2,1.792,1.792,0,0,0,1.214.388,1.887,1.887,0,0,0,1.2-.34,1,1,0,0,0,.423-.8.726.726,0,0,0-.166-.481,1.6,1.6,0,0,0-.609-.379l-1.339-.361a4.58,4.58,0,0,1-1.888-.821,2.148,2.148,0,0,1-.763-1.668,2.112,2.112,0,0,1,.352-1.177,2.333,2.333,0,0,1,1.036-.843,3.406,3.406,0,0,1,.777-.22,5.254,5.254,0,0,1,.864-.073A3.5,3.5,0,0,1,82,48.72a2.5,2.5,0,0,1,.611.8,2.35,2.35,0,0,1,.22,1.028l-1.676.073a1.381,1.381,0,0,0-.464-.918,1.716,1.716,0,0,0-1.059-.278,1.9,1.9,0,0,0-1.144.3.593.593,0,0,0-.267.514.655.655,0,0,0,.267.512A4.9,4.9,0,0,0,80,51.292a10.1,10.1,0,0,1,1.082.288,4.3,4.3,0,0,1,.734.317,2.457,2.457,0,0,1,.858,3.465,2.531,2.531,0,0,1-1.129.955,3.919,3.919,0,0,1-.839.224,6.194,6.194,0,0,1-.968.075,3.546,3.546,0,0,1-2.406-.721,3.336,3.336,0,0,1-1.019-2.126M85.653,52.3l-1.447-.261a2.269,2.269,0,0,1,.835-1.274,3.008,3.008,0,0,1,1.77-.433,3.808,3.808,0,0,1,1.579.251,1.578,1.578,0,0,1,.738.64,3.275,3.275,0,0,1,.213,1.423L89.329,54.5a7.229,7.229,0,0,0,.067,1.165,3.021,3.021,0,0,0,.29.81H88.119L87.966,56l-.056-.188a2.954,2.954,0,0,1-.873.6,2.456,2.456,0,0,1-.993.2,2.055,2.055,0,0,1-1.467-.5,1.671,1.671,0,0,1-.535-1.274,1.759,1.759,0,0,1,.237-.9,1.542,1.542,0,0,1,.688-.618,5.373,5.373,0,0,1,1.27-.371,8.065,8.065,0,0,0,1.55-.392V52.4a.823.823,0,0,0-.226-.653,1.378,1.378,0,0,0-.858-.195,1.164,1.164,0,0,0-.653.154,1.259,1.259,0,0,0-.4.6m2.134,1.291c-.083.021-.255.064-.512.124-.157.038-.309.073-.462.108a2.35,2.35,0,0,0-.87.288.672.672,0,0,0-.313.56.774.774,0,0,0,.259.572.868.868,0,0,0,.626.249,1.39,1.39,0,0,0,.823-.282,1.1,1.1,0,0,0,.379-.528l.046-.294.023-.481Zm8.606,2.887H94.8V53.411a4.739,4.739,0,0,0-.1-1.256.888.888,0,0,0-.332-.446.946.946,0,0,0-.555-.158,1.31,1.31,0,0,0-.725.212,1.15,1.15,0,0,0-.462.613,2.53,2.53,0,0,0-.1.539c-.023.23-.035.51-.035.843v2.721H90.907V50.465H92.38v.883a2.406,2.406,0,0,1,1.987-1.017,2.34,2.34,0,0,1,.947.188,1.594,1.594,0,0,1,.653.475,1.7,1.7,0,0,1,.193.3,2.516,2.516,0,0,1,.141.377,3.241,3.241,0,0,1,.068.452l.023.617ZM99.184,52.3l-1.447-.261a2.27,2.27,0,0,1,.835-1.274,3.009,3.009,0,0,1,1.77-.433,3.81,3.81,0,0,1,1.579.251,1.581,1.581,0,0,1,.738.64,3.279,3.279,0,0,1,.213,1.423L102.86,54.5a7.184,7.184,0,0,0,.068,1.165,3,3,0,0,0,.29.81h-1.567L101.5,56l-.056-.188a2.958,2.958,0,0,1-.873.6,2.456,2.456,0,0,1-.993.2,2.056,2.056,0,0,1-1.467-.5,1.671,1.671,0,0,1-.535-1.274,1.757,1.757,0,0,1,.238-.9,1.541,1.541,0,0,1,.688-.618,5.382,5.382,0,0,1,1.27-.371,8.058,8.058,0,0,0,1.55-.392V52.4a.822.822,0,0,0-.226-.653,1.377,1.377,0,0,0-.858-.195,1.165,1.165,0,0,0-.653.154,1.258,1.258,0,0,0-.4.6m2.133,1.291c-.083.021-.255.064-.512.124-.157.038-.309.073-.462.108a2.35,2.35,0,0,0-.87.288.672.672,0,0,0-.313.56.774.774,0,0,0,.259.572.867.867,0,0,0,.626.249,1.39,1.39,0,0,0,.823-.282,1.1,1.1,0,0,0,.379-.528l.046-.294.023-.481Zm2.377-3.131h1.693l1.438,4.278,1.4-4.278h1.647l-2.122,5.786-.381,1.047a3.613,3.613,0,0,1-.2.476l-.1.181-.1.147a1.707,1.707,0,0,1-.435.444,2.027,2.027,0,0,1-.6.269,3,3,0,0,1-.814.1h-.22l-.232-.017h-.124l-.085-.023-.238-.05-.143-1.243.346.048.329.021a1,1,0,0,0,.816-.327,2.2,2.2,0,0,0,.414-.829Zm7.2-2.284h1.589v1.473H110.9Zm0,2.29h1.589v6.012H110.9Zm15.027-2.29h1.589v1.473h-1.589Zm0,2.29h1.589v6.012h-1.589Zm84.4-44.132H212.5V18.907h-2.171Zm-14.157,18.7V6.334h2.044V8.7a5.365,5.365,0,0,1,1.928-2.087,5.026,5.026,0,0,1,2.664-.727,5.559,5.559,0,0,1,4.366,1.852,7.127,7.127,0,0,1,1.651,4.92,7.246,7.246,0,0,1-1.613,4.953,5.473,5.473,0,0,1-4.324,1.833,5.064,5.064,0,0,1-2.706-.708,5.2,5.2,0,0,1-1.881-2.106v8.409Zm2.073-12.381a4.842,4.842,0,0,0,1.167,3.4,4,4,0,0,0,3.1,1.276,3.829,3.829,0,0,0,2.959-1.168,4.6,4.6,0,0,0,1.079-3.241,5.615,5.615,0,0,0-1.079-3.644,3.667,3.667,0,0,0-3-1.318,3.941,3.941,0,0,0-3.091,1.252,4.935,4.935,0,0,0-1.13,3.447m-3.567-6.322V18.907H192.59V16.623a5.444,5.444,0,0,1-1.932,2.1,4.907,4.907,0,0,1-2.631.722,5.545,5.545,0,0,1-4.361-1.862,7.14,7.14,0,0,1-1.656-4.924,7.221,7.221,0,0,1,1.608-4.938,5.424,5.424,0,0,1,4.3-1.834,5.14,5.14,0,0,1,2.739.708A5.063,5.063,0,0,1,192.534,8.7V6.334ZM192.59,12.74a4.947,4.947,0,0,0-1.163-3.428,4.293,4.293,0,0,0-6.05-.1,4.772,4.772,0,0,0-1.088,3.339,5.133,5.133,0,0,0,1.093,3.513,3.917,3.917,0,0,0,3.1,1.238,3.866,3.866,0,0,0,3.015-1.2,4.823,4.823,0,0,0,1.093-3.358m-21.32,12.3,3.409-7.367L169.746,6.334h2.486l3.658,9.028,3.874-9.028h2.364l-8.437,18.7Zm-11.255-6.129V11.5a4.373,4.373,0,0,0-.769-2.832,2.888,2.888,0,0,0-2.364-.929,3.645,3.645,0,0,0-1.6.352,3.429,3.429,0,0,0-1.248.994,3.269,3.269,0,0,0-.535,1.154,10.151,10.151,0,0,0-.164,2.171v6.5h-2.073V11.5a4.373,4.373,0,0,0-.769-2.832,2.888,2.888,0,0,0-2.364-.929,3.738,3.738,0,0,0-1.613.352,3.344,3.344,0,0,0-1.257.994,3.026,3.026,0,0,0-.516,1.111,10.3,10.3,0,0,0-.159,2.214v6.5h-2.073V6.334h2.1V8.275a4.878,4.878,0,0,1,4.366-2.392,4.891,4.891,0,0,1,2.6.652,4.088,4.088,0,0,1,1.623,1.9,5.561,5.561,0,0,1,1.913-1.923,5.091,5.091,0,0,1,2.565-.633,4.435,4.435,0,0,1,3.283,1.182,4.441,4.441,0,0,1,1.182,3.283v8.559ZM138.868,6.334h2.171V18.907h-2.171ZM135.115.742h2.2V18.907h-2.2Zm-4.008,5.591h2.171V18.907h-2.171Zm-1.489,9.59v2.5a6.633,6.633,0,0,1-1.918.765,9.913,9.913,0,0,1-2.3.253c-.106,0-.211,0-.314-.005v.873h.4a3.55,3.55,0,0,1,2.279.633,2.242,2.242,0,0,1,.783,1.853,2.262,2.262,0,0,1-.877,1.918,4.177,4.177,0,0,1-2.556.666,9.093,9.093,0,0,1-1.59-.16,18.825,18.825,0,0,1-1.955-.46V23.385c.722.164,1.378.3,1.965.389a8.87,8.87,0,0,0,1.416.145,2.244,2.244,0,0,0,1.243-.281.953.953,0,0,0,.418-.844,1,1,0,0,0-.446-.9,2.649,2.649,0,0,0-1.4-.286c-.183,0-.324,0-.427,0s-.2.009-.3.009v-2.3a5.88,5.88,0,0,1-3.335-1.737,6.707,6.707,0,0,1-1.777-4.854A6.822,6.822,0,0,1,120.773,7.8a6.229,6.229,0,0,1,4.709-1.918,9.472,9.472,0,0,1,2.04.22,8.516,8.516,0,0,1,1.876.643V9.058a7.1,7.1,0,0,0-1.7-.821,5.827,5.827,0,0,0-1.787-.282,4.492,4.492,0,0,0-3.4,1.327,4.871,4.871,0,0,0-1.276,3.522,4.438,4.438,0,0,0,1.285,3.245,4.349,4.349,0,0,0,3.222,1.3,5.469,5.469,0,0,0,1.909-.342,8.242,8.242,0,0,0,1.965-1.088m-12.072-9.59V18.907h-2.086V16.623a5.449,5.449,0,0,1-1.932,2.1,4.908,4.908,0,0,1-2.631.722,5.546,5.546,0,0,1-4.361-1.862,7.141,7.141,0,0,1-1.656-4.924,7.22,7.22,0,0,1,1.609-4.938,5.423,5.423,0,0,1,4.3-1.834,5.141,5.141,0,0,1,2.739.708A5.061,5.061,0,0,1,115.4,8.7V6.334Zm-2.086,6.406A4.947,4.947,0,0,0,114.3,9.312a4.293,4.293,0,0,0-6.05-.1,4.77,4.77,0,0,0-1.088,3.339,5.133,5.133,0,0,0,1.092,3.513,3.917,3.917,0,0,0,3.1,1.238,3.867,3.867,0,0,0,3.015-1.2,4.825,4.825,0,0,0,1.093-3.358M92.119,18.907V6.334h2.1V8.275a5.27,5.27,0,0,1,1.951-1.8,5.659,5.659,0,0,1,2.64-.591,4.854,4.854,0,0,1,3.475,1.182,4.3,4.3,0,0,1,1.252,3.283v8.559h-2.2V11.5a4.236,4.236,0,0,0-.8-2.832,3.115,3.115,0,0,0-2.481-.929,4.259,4.259,0,0,0-1.754.352,3.42,3.42,0,0,0-1.313.994,3.037,3.037,0,0,0-.568,1.125,9.409,9.409,0,0,0-.173,2.2v6.5ZM90.879,6.334V18.907H88.792V16.623a5.447,5.447,0,0,1-1.932,2.1,4.908,4.908,0,0,1-2.631.722,5.546,5.546,0,0,1-4.362-1.862,7.141,7.141,0,0,1-1.656-4.924,7.22,7.22,0,0,1,1.609-4.938,5.423,5.423,0,0,1,4.3-1.834,5.141,5.141,0,0,1,2.739.708A5.061,5.061,0,0,1,88.736,8.7V6.334ZM88.792,12.74a4.947,4.947,0,0,0-1.163-3.428,4.294,4.294,0,0,0-6.05-.1,4.773,4.773,0,0,0-1.088,3.339,5.132,5.132,0,0,0,1.093,3.513,3.916,3.916,0,0,0,3.1,1.238A3.867,3.867,0,0,0,87.7,16.1a4.824,4.824,0,0,0,1.093-3.358m-24.009,12.3V6.334h2.045V8.7A5.364,5.364,0,0,1,68.756,6.61a5.026,5.026,0,0,1,2.664-.727,5.558,5.558,0,0,1,4.366,1.852,7.127,7.127,0,0,1,1.651,4.92,7.245,7.245,0,0,1-1.613,4.953A5.472,5.472,0,0,1,71.5,19.441a5.064,5.064,0,0,1-2.706-.708,5.209,5.209,0,0,1-1.881-2.106v8.409Zm2.073-12.381a4.841,4.841,0,0,0,1.168,3.4,4,4,0,0,0,3.1,1.276,3.83,3.83,0,0,0,2.959-1.168,4.6,4.6,0,0,0,1.079-3.241,5.617,5.617,0,0,0-1.079-3.644,3.668,3.668,0,0,0-3-1.318,3.941,3.941,0,0,0-3.091,1.252,4.935,4.935,0,0,0-1.13,3.447m-21.291,47L50.55,53.5A7.092,7.092,0,0,0,49.5,43.546l-6.6-5.343-1.964,2.425,6.6,5.343a3.97,3.97,0,0,1,.585,5.565L43.14,57.691ZM27.4,2.237a5.358,5.358,0,1,1-5.358,5.358A5.359,5.359,0,0,1,27.4,2.237M1.859,19.775,22.9,1.606a7.129,7.129,0,0,1,9.016,0L52.948,19.775a5.006,5.006,0,0,1,0,7.787l-3.106,2.682V34.62H46.721V23.739a3.968,3.968,0,0,0-3.957-3.957H11.7a3.968,3.968,0,0,0-3.957,3.957V42.2A3.968,3.968,0,0,0,11.7,46.159H34.239V49.28H11.7A7.09,7.09,0,0,1,4.624,42.2V29.949L1.859,27.562a5.006,5.006,0,0,1,0-7.787" transform="translate(0 0)" fill="#fff" fill-rule="evenodd"/></g></svg>